<?xml version="1.0" standalone="no"?><!DOCTYPE svg PUBLIC "-//W3C//DTD SVG 1.1//EN" "http://www.w3.org/Graphics/SVG/1.1/DTD/svg11.dtd"><svg t="1574835090417" class="icon" viewBox="0 0 1429 1024" version="1.1" xmlns="http://www.w3.org/2000/svg" p-id="5533" width="89.3125" height="64" xmlns:xlink="http://www.w3.org/1999/xlink"><defs><style type="text/css"></style></defs><path d="M525.739937 512m-512 0a512 512 0 1 0 1024 0 512 512 0 1 0-1024 0Z" fill="#CC0000" p-id="5534"></path><path d="M371.727738 207.223225c77.193462 3.622347 117.538912 57.457917 121.161259 161.631618-3.622347 98.802635-45.841425 149.890217-126.532325 153.512564-75.444743-5.371066-114.915833-56.583557-118.53818-153.512564 3.622347-104.173701 44.967065-158.009271 123.909246-161.631618z m-2.623078 245.070505c30.477677-1.748719 46.715784-31.352037 48.464503-88.809953-1.748719-53.83557-17.112466-81.690168-45.841425-83.438888-32.351305 0-49.338863 28.728958-51.21249 86.186875 1.873628 53.710661 17.986826 82.439619 48.589412 86.061966z m261.183703-242.322518h88.809954L431.059283 794.293242H342.249329L630.288363 209.971212zM689.494999 484.645035c78.942181 5.371066 120.286899 58.332276 123.909246 158.883631-1.748719 96.929007-43.967797 147.14223-126.532325 150.764576-77.193462-5.371066-117.66382-55.584289-121.161259-150.764576 3.497438-100.551354 44.842157-153.512564 123.784338-158.883631z m0 242.322518c30.477677-1.748719 46.715784-30.477677 48.464503-86.186875-1.748719-53.83557-17.112466-81.690168-45.841424-83.438887-32.351305 0-49.338863 28.728958-51.212491 86.186875 1.873628 52.08685 18.111735 79.816541 48.589412 83.438887z" fill="#FFFFFF" p-id="5535"></path></svg>