<?xml version="1.0" standalone="no"?><!DOCTYPE svg PUBLIC "-//W3C//DTD SVG 1.1//EN" "http://www.w3.org/Graphics/SVG/1.1/DTD/svg11.dtd"><svg t="1574834632311" class="icon" viewBox="0 0 1024 1024" version="1.1" xmlns="http://www.w3.org/2000/svg" p-id="5243" width="64" height="64" xmlns:xlink="http://www.w3.org/1999/xlink"><defs><style type="text/css"></style></defs><path d="M512 960C264.533333 960 64 759.466667 64 512S264.533333 64 512 64c64 0 123.733333 12.8 183.466667 38.4 8.533333 4.266667 17.066667 17.066667 8.533333 29.866667-4.266667 12.8-17.066667 17.066667-29.866667 8.533333-51.2-25.6-106.666667-38.4-166.4-38.4-221.866667 0-405.333333 183.466667-405.333333 405.333333s183.466667 405.333333 405.333333 405.333334 405.333333-183.466667 405.333334-405.333334V469.333333c0-12.8 8.533333-21.333333 21.333333-21.333333s21.333333 8.533333 21.333333 21.333333v42.666667c4.266667 247.466667-196.266667 448-443.733333 448z" fill="#F86139" p-id="5244"></path><path d="M512 618.666667c-4.266667 0-12.8 0-17.066667-4.266667l-128-128c-8.533333-8.533333-8.533333-21.333333 0-29.866667s21.333333-8.533333 29.866667 0l110.933333 110.933334 409.6-409.6c8.533333-8.533333 21.333333-8.533333 29.866667 0s8.533333 21.333333 0 29.866666l-426.666667 426.666667c4.266667 4.266667-4.266667 4.266667-8.533333 4.266667z" fill="#F86139" p-id="5245"></path></svg>